<svg xmlns="http://www.w3.org/2000/svg" viewBox="0 0 78.07 78.07"><defs><style>.cls-1{fill:#eee;}.cls-2{fill:none;stroke:#4ac0cf;stroke-miterlimit:10;}.cls-3{fill:#4ac0cf;}</style></defs><title>3. Schedule rounded bg</title><g id="Layer_2" data-name="Layer 2"><g id="Layer_1-2" data-name="Layer 1"><circle class="cls-1" cx="39.04" cy="39.04" r="39.04"/><path class="cls-2" d="M55.41,26.07V54.74A2.44,2.44,0,0,1,53,57.18H25.1a2.44,2.44,0,0,1-2.44-2.44V26.07a2.44,2.44,0,0,1,2.44-2.44h.43v1.65a1.46,1.46,0,0,0,2.92,0V23.63h8.87v1.65a1.47,1.47,0,0,0,2.93,0V23.63h9v1.65a1.47,1.47,0,0,0,2.93,0V23.63H53A2.44,2.44,0,0,1,55.41,26.07Z"/><path class="cls-2" d="M28.45,22.35v2.93a1.46,1.46,0,0,1-2.92,0V22.35A1.47,1.47,0,0,1,27,20.89a1.49,1.49,0,0,1,1,.43A1.46,1.46,0,0,1,28.45,22.35Z"/><path class="cls-2" d="M40.25,22.35v2.93a1.47,1.47,0,0,1-2.93,0V22.35a1.47,1.47,0,0,1,1.46-1.46,1.49,1.49,0,0,1,1,.43A1.47,1.47,0,0,1,40.25,22.35Z"/><path class="cls-2" d="M52.17,22.35v2.93a1.47,1.47,0,0,1-2.93,0V22.35a1.47,1.47,0,0,1,1.47-1.46,1.49,1.49,0,0,1,1,.43A1.47,1.47,0,0,1,52.17,22.35Z"/><line class="cls-2" x1="22.66" y1="32.25" x2="55.41" y2="32.25"/><rect class="cls-3" x="27.12" y="35.88" width="3.67" height="4"/><rect class="cls-3" x="33.76" y="35.88" width="3.67" height="4"/><rect class="cls-3" x="40.4" y="35.88" width="3.67" height="4"/><rect class="cls-3" x="47.04" y="35.88" width="3.67" height="4"/><rect class="cls-3" x="27.24" y="42.62" width="3.67" height="4"/><rect class="cls-3" x="33.88" y="42.62" width="3.67" height="4"/><rect class="cls-3" x="40.52" y="42.62" width="3.67" height="4"/><rect class="cls-3" x="47.16" y="42.62" width="3.67" height="4"/><rect class="cls-3" x="27.36" y="49.36" width="3.67" height="4"/><rect class="cls-3" x="34" y="49.36" width="3.67" height="4"/><rect class="cls-3" x="40.64" y="49.36" width="3.67" height="4"/><rect class="cls-3" x="47.28" y="49.36" width="3.67" height="4"/></g></g></svg>