<svg xmlns="http://www.w3.org/2000/svg" viewBox="0 0 89.75 72.51"><defs><style>.cls-1{fill:none;stroke:#000;stroke-miterlimit:10;}</style></defs><title>Bundle icon</title><g id="Layer_2" data-name="Layer 2"><g id="Layer_1-2" data-name="Layer 1"><polygon class="cls-1" points="1 26.14 14.68 18.19 44.61 35.47 30.93 43.41 1 26.14"/><polyline class="cls-1" points="44.65 35.52 44.64 71.63 15.71 54.35 15.71 34.56"/><polyline class="cls-1" points="74.64 34.56 74.64 55.35 45.15 71.94"/><polygon class="cls-1" points="88.75 26.14 58.83 43.42 45.15 35.47 75.08 18.19 88.75 26.14"/><path class="cls-1" d="M58.26,10.93A18.1,18.1,0,0,1,60,7.43C64,1,71.63,1.49,71.63,1.49c-11.88-4.39-20,7.26-20,7.26L46.34,6.2l2.52,16.37L64,13.69Z"/><path class="cls-1" d="M30.4,11.93a18.66,18.66,0,0,0-1.73-3.5C24.62,2,19,2.49,19,2.49,30.9-1.9,37,8.75,37,8.75L42.31,6.2,39.79,22.57,24.65,14.69Z"/></g></g></svg>