<svg xmlns="http://www.w3.org/2000/svg" viewBox="0 0 56 51.363">
  <g id="Group_140" data-name="Group 140" transform="translate(-1239.097 -2786)">
    <path id="Path_2619" data-name="Path 2619" d="M47.025,29.775V8.95A2.578,2.578,0,0,0,44.4,6.325H41.95V4.575a.875.875,0,0,0-1.75,0v1.75H36.7V4.575a.875.875,0,0,0-1.75,0v1.75H13.075V4.575a.875.875,0,1,0-1.75,0v1.75h-3.5V4.575A.827.827,0,0,0,6.95,3.7a.827.827,0,0,0-.875.875v1.75H3.625A2.578,2.578,0,0,0,1,8.95V42.812a2.578,2.578,0,0,0,2.625,2.625H31.887A12.761,12.761,0,1,0,47.025,29.775Zm-43.4-21.7h2.45v1.75a.827.827,0,0,0,.875.875.827.827,0,0,0,.875-.875V8.075h3.5v1.75a.875.875,0,1,0,1.75,0V8.075H34.95v1.75a.875.875,0,0,0,1.75,0V8.075h3.5v1.75a.875.875,0,0,0,1.75,0V8.075H44.4a.827.827,0,0,1,.875.875v4.375H2.75V8.95A.877.877,0,0,1,3.625,8.075Zm0,35.612a.827.827,0,0,1-.875-.875V15.075H45.275V29.512c-.35,0-.7-.087-1.05-.087A12.79,12.79,0,0,0,31.45,42.2a7.527,7.527,0,0,0,.087,1.4H3.625Zm40.6,9.537A11.025,11.025,0,1,1,55.25,42.2,11.035,11.035,0,0,1,44.225,53.225Z" transform="translate(1238.097 2782.3)"/>
    <g id="Group_121" data-name="Group 121" transform="translate(1281.447 2815.313)">
      <rect id="Rectangle_93" data-name="Rectangle 93" width="1.75" height="1.75"/>
    </g>
    <g id="Group_122" data-name="Group 122" transform="translate(1281.447 2832.025)">
      <rect id="Rectangle_94" data-name="Rectangle 94" width="1.75" height="1.75" transform="translate(0 0)"/>
    </g>
    <g id="Group_123" data-name="Group 123" transform="translate(1287.038 2817.381)">
      <rect id="Rectangle_95" data-name="Rectangle 95" width="1.75" height="1.75" transform="translate(1.237 2.475) rotate(-135)"/>
    </g>
    <g id="Group_124" data-name="Group 124" transform="translate(1275.144 2829.227)">
      <rect id="Rectangle_96" data-name="Rectangle 96" width="1.75" height="1.75" transform="matrix(-0.707, -0.707, 0.707, -0.707, 1.237, 2.475)"/>
    </g>
    <g id="Group_125" data-name="Group 125" transform="translate(1289.847 2823.713)">
      <rect id="Rectangle_97" data-name="Rectangle 97" width="1.75" height="1.75"/>
    </g>
    <g id="Group_126" data-name="Group 126" transform="translate(1273.135 2823.713)">
      <rect id="Rectangle_98" data-name="Rectangle 98" width="1.75" height="1.75"/>
    </g>
    <g id="Group_127" data-name="Group 127" transform="translate(1287.011 2829.249)">
      <rect id="Rectangle_99" data-name="Rectangle 99" width="1.75" height="1.75" transform="matrix(-0.707, -0.707, 0.707, -0.707, 1.237, 2.475)"/>
    </g>
    <g id="Group_128" data-name="Group 128" transform="translate(1275.169 2817.355)">
      <rect id="Rectangle_100" data-name="Rectangle 100" width="1.75" height="1.75" transform="translate(1.238 2.475) rotate(-135.02)"/>
    </g>
    <g id="Group_129" data-name="Group 129" transform="translate(1278.21 2823.713)">
      <path id="Path_2620" data-name="Path 2620" d="M53.662,46.8H49.9a.794.794,0,0,0-.612.262l-3.325,3.15a.866.866,0,0,0,1.225,1.225L50.25,48.55h3.413a.827.827,0,0,0,.875-.875A.877.877,0,0,0,53.662,46.8Z" transform="translate(-45.7 -46.8)"/>
    </g>
    <g id="Group_130" data-name="Group 130" transform="translate(1273.135 2799.825)">
      <path id="Path_2621" data-name="Path 2621" d="M40.775,25.975H45.5a.827.827,0,0,0,.875-.875V20.375A.827.827,0,0,0,45.5,19.5H40.775a.827.827,0,0,0-.875.875V25.1A.827.827,0,0,0,40.775,25.975Zm.875-4.725h2.975v2.975H41.65Z" transform="translate(-39.9 -19.5)"/>
    </g>
    <g id="Group_131" data-name="Group 131" transform="translate(1263.597 2799.825)">
      <path id="Path_2622" data-name="Path 2622" d="M29.875,25.975H34.6a.827.827,0,0,0,.875-.875V20.375A.827.827,0,0,0,34.6,19.5H29.875a.827.827,0,0,0-.875.875V25.1A.877.877,0,0,0,29.875,25.975Zm.875-4.725h2.975v2.975H30.75Z" transform="translate(-29 -19.5)"/>
    </g>
    <g id="Group_132" data-name="Group 132" transform="translate(1263.597 2808.4)">
      <path id="Path_2623" data-name="Path 2623" d="M35.475,34.9V30.175A.827.827,0,0,0,34.6,29.3H29.875a.827.827,0,0,0-.875.875V34.9a.827.827,0,0,0,.875.875H34.6A.877.877,0,0,0,35.475,34.9Zm-1.75-.875H30.75V31.05h2.975Z" transform="translate(-29 -29.3)"/>
    </g>
    <g id="Group_133" data-name="Group 133" transform="translate(1244.697 2799.825)">
      <path id="Path_2624" data-name="Path 2624" d="M12.912,19.5H8.275a.827.827,0,0,0-.875.875V25.1a.827.827,0,0,0,.875.875H13a.827.827,0,0,0,.875-.875V20.375A1.028,1.028,0,0,0,12.912,19.5Zm-.875,4.725H9.15V21.25h2.975v2.975Z" transform="translate(-7.4 -19.5)"/>
    </g>
    <g id="Group_134" data-name="Group 134" transform="translate(1244.697 2808.488)">
      <path id="Path_2625" data-name="Path 2625" d="M12.912,29.4H8.275a.827.827,0,0,0-.875.875V35a.827.827,0,0,0,.875.875H13A.827.827,0,0,0,13.875,35V30.275A.954.954,0,0,0,12.912,29.4Zm-.875,4.637H9.15V31.062h2.975v2.975Z" transform="translate(-7.4 -29.4)"/>
    </g>
    <g id="Group_135" data-name="Group 135" transform="translate(1244.697 2817.063)">
      <path id="Path_2626" data-name="Path 2626" d="M12.912,39.2H8.275a.827.827,0,0,0-.875.875V44.8a.827.827,0,0,0,.875.875H13a.827.827,0,0,0,.875-.875V40.075A.954.954,0,0,0,12.912,39.2Zm-.875,4.637H9.15V40.862h2.975v2.975Z" transform="translate(-7.4 -39.2)"/>
    </g>
    <g id="Group_136" data-name="Group 136" transform="translate(1254.147 2799.825)">
      <path id="Path_2627" data-name="Path 2627" d="M23.8,19.5H19.075a.827.827,0,0,0-.875.875V25.1a.827.827,0,0,0,.875.875H23.8a.827.827,0,0,0,.875-.875V20.375A.941.941,0,0,0,23.8,19.5Zm-.875,4.725H19.95V21.25h2.975Z" transform="translate(-18.2 -19.5)"/>
    </g>
    <g id="Group_137" data-name="Group 137" transform="translate(1254.147 2808.488)">
      <path id="Path_2628" data-name="Path 2628" d="M23.8,29.4H19.075a.827.827,0,0,0-.875.875V35a.827.827,0,0,0,.875.875H23.8A.827.827,0,0,0,24.675,35V30.275A.877.877,0,0,0,23.8,29.4Zm-.875,4.637H19.95V31.062h2.975Z" transform="translate(-18.2 -29.4)"/>
    </g>
    <g id="Group_138" data-name="Group 138" transform="translate(1254.147 2817.063)">
      <path id="Path_2629" data-name="Path 2629" d="M23.8,39.2H19.075a.827.827,0,0,0-.875.875V44.8a.827.827,0,0,0,.875.875H23.8a.827.827,0,0,0,.875-.875V40.075A.877.877,0,0,0,23.8,39.2Zm-.875,4.637H19.95V40.862h2.975Z" transform="translate(-18.2 -39.2)"/>
    </g>
  </g>
</svg>
