<svg xmlns="http://www.w3.org/2000/svg" viewBox="0 0 50.598 35.858">
  <g id="noun_Card_1153827" transform="translate(-5 -19.6)">
    <g id="Group_145" data-name="Group 145" transform="translate(5 19.6)">
      <path id="Path_2643" data-name="Path 2643" d="M52,19.6H8.647A3.631,3.631,0,0,0,5,23.247V51.812a3.631,3.631,0,0,0,3.647,3.647h43.3A3.631,3.631,0,0,0,55.6,51.812V23.247A3.558,3.558,0,0,0,52,19.6ZM6.823,27.552h47V32.87h-47Zm47,24.26A1.816,1.816,0,0,1,52,53.635H8.647a1.816,1.816,0,0,1-1.823-1.823V34.693h47Zm-47-26.083V23.247a1.816,1.816,0,0,1,1.823-1.823h43.3a1.816,1.816,0,0,1,1.823,1.823v2.482Z" transform="translate(-5 -19.6)"/>
      <path id="Path_2644" data-name="Path 2644" d="M70.635,69.166h6.736a2.724,2.724,0,0,0,2.735-2.735v-3.6A2.724,2.724,0,0,0,77.371,60.1H70.635A2.724,2.724,0,0,0,67.9,62.835v3.6A2.756,2.756,0,0,0,70.635,69.166Zm-.912-6.382a.908.908,0,0,1,.912-.912h6.736a.908.908,0,0,1,.912.912v3.6a.908.908,0,0,1-.912.912H70.635a.908.908,0,0,1-.912-.912Z" transform="translate(-36.043 -39.588)"/>
      <path id="Path_2645" data-name="Path 2645" d="M18.012,63.423H36.3a.912.912,0,1,0,0-1.823H18.012a.908.908,0,0,0-.912.912A.942.942,0,0,0,18.012,63.423Z" transform="translate(-10.972 -40.328)"/>
      <path id="Path_2646" data-name="Path 2646" d="M18.012,74.223H28.141a.912.912,0,0,0,0-1.823H18.012a.912.912,0,0,0,0,1.823Z" transform="translate(-10.972 -45.658)"/>
    </g>
  </g>
</svg>
