<svg xmlns="http://www.w3.org/2000/svg" viewBox="0 0 7.05 10.35"><defs><style>.cls-1{fill:none;stroke:#231f20;stroke-linecap:round;stroke-linejoin:round;stroke-width:0.7px;}</style></defs><title>Location - b</title><g id="Layer_2" data-name="Layer 2"><g id="Layer_1-2" data-name="Layer 1"><path class="cls-1" d="M3.52.35A3.17,3.17,0,0,0,.35,3.65,3.13,3.13,0,0,0,.82,5.36L3.41,9.93a.14.14,0,0,0,.18.05.1.1,0,0,0,0-.05l2.6-4.57A3.13,3.13,0,0,0,6.7,3.65,3.17,3.17,0,0,0,3.52.35Zm0,1.9A1.27,1.27,0,1,1,2.25,3.52,1.27,1.27,0,0,1,3.52,2.25Z"/></g></g></svg>