<svg xmlns="http://www.w3.org/2000/svg" viewBox="0 0 21.69 21.87"><defs><style>.cls-1{fill:none;stroke:#000;stroke-linecap:round;stroke-linejoin:round;}</style></defs><title>Mobile</title><g id="Layer_2" data-name="Layer 2"><g id="Layer_1-2" data-name="Layer 1"><path class="cls-1" d="M11.29,7.49A2.91,2.91,0,0,1,14.2,10.4"/><path class="cls-1" d="M11.29.5a9.9,9.9,0,0,1,9.9,9.9"/><path class="cls-1" d="M11.29,4.21a6.2,6.2,0,0,1,6.2,6.19"/><path class="cls-1" d="M17.49,15.4l2.77.41a.83.83,0,0,1,.69.63c.63,2.93-.84,4.15-2,4.65a3.35,3.35,0,0,1-1.77.26C2.13,19.56.62,7.35.5,3.83a2.87,2.87,0,0,1,.68-2A3.77,3.77,0,0,1,5.61,1a1,1,0,0,1,.61.85l.23,3.78L4.61,7.77a13,13,0,0,0,9.59,9.51Z"/></g></g></svg>