<?xml version="1.0" encoding="utf-8"?>
<!-- Generator: Adobe Illustrator 22.1.0, SVG Export Plug-In . SVG Version: 6.00 Build 0)  -->
<svg version="1.1" id="Layer_1" xmlns="http://www.w3.org/2000/svg" xmlns:xlink="http://www.w3.org/1999/xlink" x="0px" y="0px"
	 viewBox="0 0 153.3 126.1" style="enable-background:new 0 0 153.3 126.1;" xml:space="preserve">
<style type="text/css">
	.st0{fill:#901DFE;}
</style>
<title>valucart</title>
<g>
	<g>
		<path class="st0" d="M0,49.7l23-13.3l50.2,29l-23,13.3L0,49.7z M74.9,126.1l-50.2-29V68l24.7,14.2c0.3,0.2,0.6,0.2,0.9,0.2
			c0.3,0,0.6-0.1,0.9-0.2L75,68.4L74.9,126.1z M128.6,97.1l-50.2,29V68.4l23.8,13.8c0.5,0.3,1.2,0.3,1.7,0L128.6,68V97.1z
			 M153.3,49.7l-50.2,29l-23-13.3l50.2-29"/>
		<g>
			<path class="st0" d="M107.2,24.2c1.5-3.6,2.1-5,3.7-7.4c8.6-13.5,28.9-14.7,28.9-14.7c-25.1-9.3-46.5,15.4-46.5,15.4L82,12.1
				l5.3,36.7l32-18.8L107.2,24.2z"/>
		</g>
		<g>
			<path class="st0" d="M48.3,24.2c-1.5-3.6-2.1-5-3.7-7.4C36.1,3.3,15.8,2.1,15.8,2.1c25.1-9.3,46.5,15.4,46.5,15.4l11.2-5.4
				l-5.3,36.7L36.1,30L48.3,24.2z"/>
		</g>
	</g>
</g>
</svg>
