<?xml version="1.0" encoding="utf-8"?>
<!-- Generator: Adobe Illustrator 22.1.0, SVG Export Plug-In . SVG Version: 6.00 Build 0)  -->
<svg version="1.1" id="Layer_1" xmlns="http://www.w3.org/2000/svg" xmlns:xlink="http://www.w3.org/1999/xlink" x="0px" y="0px"
	 viewBox="0 0 126.4 126.1" style="enable-background:new 0 0 126.4 126.1;" xml:space="preserve">
<style type="text/css">
	.st0{fill:#901DFE;}
</style>
<title>valucart</title>
<path class="st0" d="M112.9,72.3l13.4-5.5l-12.6-7.2l11.6-8.7l-14-3.8l9.1-11.3l-14.5-0.2l6-13.2l-14.1,3.4l2.5-14.3l-12.8,6.8
	l-1-14.4l-10.7,9.8L71.1,0l-7.9,12.2L55.3,0l-4.7,13.7L39.9,3.9l-1.1,14.5L26,11.6l2.5,14.3l-14.1-3.4l6,13.2L5.9,35.9L15,47.2
	L1,50.9l11.6,8.7L0,66.8l13.4,5.5L3,82.4l14.4,2L9.7,96.7l14.4-1.6L19.8,109l13.6-5.2l-0.7,14.5l11.9-8.4l2.9,14.2l9.4-11.1
	l6.4,13.1l6.3-13.1l9.4,11.1l2.9-14.2l11.9,8.4L93,103.8l13.6,5.2l-4.3-13.9l14.4,1.6L109,84.4l14.4-2L112.9,72.3z M49.3,43.6
	c3.7-4.9,8.6-7.5,13.9-7.5s10.2,2.7,13.9,7.5c0.9,1.1,1.6,2.4,2.3,3.7c0.1,0.2,0.1,0.4-0.1,0.6l-3.4,3.4c-0.2,0.2-0.6,0.2-0.8-0.2
	c-0.6-1.5-1.4-2.9-2.4-4.2c-2.6-3.4-5.9-5.3-9.5-5.3c-3.5,0-6.9,1.9-9.5,5.3c-1,1.3-1.8,2.7-2.4,4.2c-0.1,0.3-0.5,0.4-0.8,0.2
	l-3.4-3.4c-0.1-0.1-0.2-0.4-0.1-0.6C47.7,46,48.4,44.8,49.3,43.6z M85.1,68c0,12.1-9.8,22-22,22c-12.1,0-22-9.8-22-22V47.2
	c0-0.4,0.5-0.6,0.8-0.3l20.8,20.8c0.2,0.2,0.5,0.2,0.7,0l20.8-20.8c0.3-0.3,0.8-0.1,0.8,0.3L85.1,68L85.1,68z"/>
</svg>
