<svg xmlns="http://www.w3.org/2000/svg" viewBox="0 0 33.69 30.44"><defs><style>.cls-1{fill:none;stroke:#000;stroke-linecap:round;stroke-miterlimit:10;stroke-width:2px;}</style></defs><title>Wishlist</title><g id="Layer_2" data-name="Layer 2"><g id="Layer_1-2" data-name="Layer 1"><path class="cls-1" d="M16.84,29.44a1.21,1.21,0,0,1-.89-.37L3.44,16a9,9,0,0,1,0-12.37A8.23,8.23,0,0,1,9.46,1a8.13,8.13,0,0,1,5.95,2.58l1.44,1.5,1.43-1.49a8.22,8.22,0,0,1,6-2.58h0a8.22,8.22,0,0,1,6,2.58,9,9,0,0,1,0,12.37l-6.17,6.46-6.35,6.66a1.21,1.21,0,0,1-.88.36Z"/></g></g></svg>